<svg width="131" height="144" viewBox="0 0 131 144" fill="none" xmlns="http://www.w3.org/2000/svg">
<circle cx="13" cy="9" r="6" fill="#292B5C"/>
<circle cx="34" cy="9" r="6" fill="#292B5C"/>
<circle cx="55" cy="9" r="6" fill="#292B5C"/>
<circle cx="76" cy="9" r="6" fill="#292B5C"/>
<circle cx="97" cy="9" r="6" fill="#292B5C"/>
<circle cx="118" cy="9" r="6" fill="#292B5C"/>
<circle cx="13" cy="27" r="6" fill="#292B5C"/>
<circle cx="34" cy="27" r="6" fill="#292B5C"/>
<circle cx="55" cy="27" r="6" fill="#292B5C"/>
<circle cx="76" cy="27" r="6" fill="#292B5C"/>
<circle cx="97" cy="27" r="6" fill="#292B5C"/>
<circle cx="118" cy="27" r="6" fill="#292B5C"/>
<circle cx="13" cy="45" r="6" fill="#292B5C"/>
<circle cx="34" cy="45" r="6" fill="#292B5C"/>
<circle cx="55" cy="45" r="6" fill="#292B5C"/>
<circle cx="76" cy="45" r="6" fill="#292B5C"/>
<circle cx="97" cy="45" r="6" fill="#292B5C"/>
<circle cx="118" cy="45" r="6" fill="#292B5C"/>
<circle cx="13" cy="63" r="6" fill="#292B5C"/>
<circle cx="34" cy="63" r="6" fill="#292B5C"/>
<circle cx="55" cy="63" r="6" fill="#292B5C"/>
<circle cx="76" cy="63" r="6" fill="#292B5C"/>
<circle cx="97" cy="63" r="6" fill="#292B5C"/>
<circle cx="118" cy="63" r="6" fill="#292B5C"/>
<circle cx="13" cy="81" r="6" fill="#292B5C"/>
<circle cx="34" cy="81" r="6" fill="#292B5C"/>
<circle cx="55" cy="81" r="6" fill="#292B5C"/>
<circle cx="76" cy="81" r="6" fill="#292B5C"/>
<circle cx="97" cy="81" r="6" fill="#292B5C"/>
<circle cx="118" cy="81" r="6" fill="#292B5C"/>
<circle cx="13" cy="99" r="6" fill="#292B5C"/>
<circle cx="34" cy="99" r="6" fill="#292B5C"/>
<circle cx="55" cy="99" r="6" fill="#292B5C"/>
<circle cx="76" cy="99" r="6" fill="#292B5C"/>
<circle cx="97" cy="99" r="6" fill="#292B5C"/>
<circle cx="118" cy="99" r="6" fill="#292B5C"/>
<circle cx="13" cy="117" r="6" fill="#292B5C"/>
<circle cx="34" cy="117" r="6" fill="#292B5C"/>
<circle cx="55" cy="117" r="6" fill="#292B5C"/>
<circle cx="76" cy="117" r="6" fill="#292B5C"/>
<circle cx="97" cy="117" r="6" fill="#292B5C"/>
<circle cx="118" cy="117" r="6" fill="#292B5C"/>
<circle cx="13" cy="135" r="6" fill="#292B5C"/>
<circle cx="34" cy="135" r="6" fill="#292B5C"/>
<circle cx="55" cy="135" r="6" fill="#292B5C"/>
<circle cx="76" cy="135" r="6" fill="#292B5C"/>
<circle cx="97" cy="135" r="6" fill="#292B5C"/>
<circle cx="118" cy="135" r="6" fill="#292B5C"/>
</svg>
