<svg width="144" height="131" viewBox="0 0 144 131" fill="none" xmlns="http://www.w3.org/2000/svg">
<circle cx="135" cy="13" r="6" transform="rotate(90 135 13)" fill="#55ECA9"/>
<circle cx="135" cy="34" r="6" transform="rotate(90 135 34)" fill="#55ECA9"/>
<circle cx="135" cy="55" r="6" transform="rotate(90 135 55)" fill="#55ECA9"/>
<circle cx="135" cy="76" r="6" transform="rotate(90 135 76)" fill="#55ECA9"/>
<circle cx="135" cy="97" r="6" transform="rotate(90 135 97)" fill="#55ECA9"/>
<circle cx="135" cy="118" r="6" transform="rotate(90 135 118)" fill="#55ECA9"/>
<circle cx="117" cy="13" r="6" transform="rotate(90 117 13)" fill="#55ECA9"/>
<circle cx="117" cy="34" r="6" transform="rotate(90 117 34)" fill="#55ECA9"/>
<circle cx="117" cy="55" r="6" transform="rotate(90 117 55)" fill="#55ECA9"/>
<circle cx="117" cy="76" r="6" transform="rotate(90 117 76)" fill="#55ECA9"/>
<circle cx="117" cy="97" r="6" transform="rotate(90 117 97)" fill="#55ECA9"/>
<circle cx="117" cy="118" r="6" transform="rotate(90 117 118)" fill="#55ECA9"/>
<circle cx="99" cy="13" r="6" transform="rotate(90 99 13)" fill="#55ECA9"/>
<circle cx="99" cy="34" r="6" transform="rotate(90 99 34)" fill="#55ECA9"/>
<circle cx="99" cy="55" r="6" transform="rotate(90 99 55)" fill="#55ECA9"/>
<circle cx="99" cy="76" r="6" transform="rotate(90 99 76)" fill="#55ECA9"/>
<circle cx="99" cy="97" r="6" transform="rotate(90 99 97)" fill="#55ECA9"/>
<circle cx="99" cy="118" r="6" transform="rotate(90 99 118)" fill="#55ECA9"/>
<circle cx="81" cy="13" r="6" transform="rotate(90 81 13)" fill="#55ECA9"/>
<circle cx="81" cy="34" r="6" transform="rotate(90 81 34)" fill="#55ECA9"/>
<circle cx="81" cy="55" r="6" transform="rotate(90 81 55)" fill="#55ECA9"/>
<circle cx="81" cy="76" r="6" transform="rotate(90 81 76)" fill="#55ECA9"/>
<circle cx="81" cy="97" r="6" transform="rotate(90 81 97)" fill="#55ECA9"/>
<circle cx="81" cy="118" r="6" transform="rotate(90 81 118)" fill="#55ECA9"/>
<circle cx="63" cy="13" r="6" transform="rotate(90 63 13)" fill="#55ECA9"/>
<circle cx="63" cy="34" r="6" transform="rotate(90 63 34)" fill="#55ECA9"/>
<circle cx="63" cy="55" r="6" transform="rotate(90 63 55)" fill="#55ECA9"/>
<circle cx="63" cy="76" r="6" transform="rotate(90 63 76)" fill="#55ECA9"/>
<circle cx="63" cy="97" r="6" transform="rotate(90 63 97)" fill="#55ECA9"/>
<circle cx="63" cy="118" r="6" transform="rotate(90 63 118)" fill="#55ECA9"/>
<circle cx="45" cy="13" r="6" transform="rotate(90 45 13)" fill="#55ECA9"/>
<circle cx="45" cy="34" r="6" transform="rotate(90 45 34)" fill="#55ECA9"/>
<circle cx="45" cy="55" r="6" transform="rotate(90 45 55)" fill="#55ECA9"/>
<circle cx="45" cy="76" r="6" transform="rotate(90 45 76)" fill="#55ECA9"/>
<circle cx="45" cy="97" r="6" transform="rotate(90 45 97)" fill="#55ECA9"/>
<circle cx="45" cy="118" r="6" transform="rotate(90 45 118)" fill="#55ECA9"/>
<circle cx="27" cy="13" r="6" transform="rotate(90 27 13)" fill="#55ECA9"/>
<circle cx="27" cy="34" r="6" transform="rotate(90 27 34)" fill="#55ECA9"/>
<circle cx="27" cy="55" r="6" transform="rotate(90 27 55)" fill="#55ECA9"/>
<circle cx="27" cy="76" r="6" transform="rotate(90 27 76)" fill="#55ECA9"/>
<circle cx="27" cy="97" r="6" transform="rotate(90 27 97)" fill="#55ECA9"/>
<circle cx="27" cy="118" r="6" transform="rotate(90 27 118)" fill="#55ECA9"/>
<circle cx="9" cy="13" r="6" transform="rotate(90 9 13)" fill="#55ECA9"/>
<circle cx="9" cy="34" r="6" transform="rotate(90 9 34)" fill="#55ECA9"/>
<circle cx="9" cy="55" r="6" transform="rotate(90 9 55)" fill="#55ECA9"/>
<circle cx="9" cy="76" r="6" transform="rotate(90 9 76)" fill="#55ECA9"/>
<circle cx="8.99999" cy="97" r="6" transform="rotate(90 8.99999 97)" fill="#55ECA9"/>
<circle cx="8.99999" cy="118" r="6" transform="rotate(90 8.99999 118)" fill="#55ECA9"/>
</svg>
