<svg width="32" height="32" viewBox="0 0 32 32" fill="none" xmlns="http://www.w3.org/2000/svg">
<path d="M30 16C30 8.26801 23.732 2 16 2C8.26801 2 2 8.26801 2 16C2 23.732 8.26801 30 16 30C23.732 30 30 23.732 30 16Z" fill="#55ECA9"/>
<path d="M12.6186 9.69215C12.6186 10.6267 11.8085 11.3843 10.8093 11.3843C9.81004 11.3843 9 10.6267 9 9.69215C9 8.7576 9.81004 8 10.8093 8C11.8085 8 12.6186 8.7576 12.6186 9.69215Z" fill="#2D376B"/>
<path d="M9.24742 12.6282H12.3402V22.0001H9.24742V12.6282Z" fill="#2D376B"/>
<path d="M17.3196 12.6282H14.2268V22.0001H17.3196C17.3196 22.0001 17.3196 19.0497 17.3196 17.205C17.3196 16.0977 17.6977 14.9856 19.2062 14.9856C20.911 14.9856 20.9008 16.4346 20.8928 17.5572C20.8824 19.0245 20.9072 20.522 20.9072 22.0001H24V17.0538C23.9738 13.8955 23.1508 12.4402 20.4433 12.4402C18.8354 12.4402 17.8387 13.1702 17.3196 13.8306V12.6282Z" fill="#2D376B"/>
</svg>
