<svg width="17" height="13" viewBox="0 0 17 13" fill="none" xmlns="http://www.w3.org/2000/svg">
<path d="M7 0C6.60218 0 6.22064 0.158035 5.93934 0.43934C5.65804 0.720644 5.5 1.10218 5.5 1.5V2H2C1.60218 2 1.22064 2.15804 0.93934 2.43934C0.658035 2.72064 0.5 3.10218 0.5 3.5L0.5 11.5C0.5 11.8978 0.658035 12.2794 0.93934 12.5607C1.22064 12.842 1.60218 13 2 13H15C15.3978 13 15.7794 12.842 16.0607 12.5607C16.342 12.2794 16.5 11.8978 16.5 11.5V3.5C16.5 3.10218 16.342 2.72064 16.0607 2.43934C15.7794 2.15804 15.3978 2 15 2H11.5V1.5C11.5 1.10218 11.342 0.720644 11.0607 0.43934C10.7794 0.158035 10.3978 0 10 0H7ZM7 1H10C10.1326 1 10.2598 1.05268 10.3536 1.14645C10.4473 1.24021 10.5 1.36739 10.5 1.5V2H6.5V1.5C6.5 1.36739 6.55268 1.24021 6.64645 1.14645C6.74021 1.05268 6.86739 1 7 1ZM8.886 7.914L15.5 6.151V11.5C15.5 11.6326 15.4473 11.7598 15.3536 11.8536C15.2598 11.9473 15.1326 12 15 12H2C1.86739 12 1.74021 11.9473 1.64645 11.8536C1.55268 11.7598 1.5 11.6326 1.5 11.5V6.15L8.114 7.914C8.36693 7.98135 8.63307 7.98135 8.886 7.914ZM2 3H15C15.1326 3 15.2598 3.05268 15.3536 3.14645C15.4473 3.24021 15.5 3.36739 15.5 3.5V5.116L8.629 6.948C8.54448 6.97057 8.45552 6.97057 8.371 6.948L1.5 5.116V3.5C1.5 3.36739 1.55268 3.24021 1.64645 3.14645C1.74021 3.05268 1.86739 3 2 3Z" fill="#292B5C"/>
</svg>
