<svg width="100" height="100" viewBox="0 0 100 100" fill="none" xmlns="http://www.w3.org/2000/svg">
<g clip-path="url(#clip0_54_806)">
<path d="M25 25C25 21.6848 26.317 18.5054 28.6612 16.1612C31.0054 13.817 34.1848 12.5 37.5 12.5H62.5C65.8152 12.5 68.9946 13.817 71.3388 16.1612C73.683 18.5054 75 21.6848 75 25V75C75 78.3152 73.683 81.4946 71.3388 83.8388C68.9946 86.183 65.8152 87.5 62.5 87.5H37.5C34.1848 87.5 31.0054 86.183 28.6612 83.8388C26.317 81.4946 25 78.3152 25 75V25ZM56.25 68.75C56.25 67.0924 55.5915 65.5027 54.4194 64.3306C53.2473 63.1585 51.6576 62.5 50 62.5C48.3424 62.5 46.7527 63.1585 45.5806 64.3306C44.4085 65.5027 43.75 67.0924 43.75 68.75C43.75 70.4076 44.4085 71.9973 45.5806 73.1694C46.7527 74.3415 48.3424 75 50 75C51.6576 75 53.2473 74.3415 54.4194 73.1694C55.5915 71.9973 56.25 70.4076 56.25 68.75ZM11.2938 29.5875C11.6816 28.8548 11.7626 27.9981 11.5188 27.2058C11.275 26.4134 10.7264 25.7504 9.99376 25.3625C9.26109 24.9746 8.40436 24.8937 7.61202 25.1375C6.81967 25.3813 6.15663 25.9298 5.76875 26.6625C1.97652 33.8568 -0.00362766 41.8675 4.98915e-06 50C4.98915e-06 58.4188 2.0875 66.3625 5.76875 73.3375C5.96081 73.7003 6.22245 74.0217 6.53871 74.2833C6.85498 74.545 7.21969 74.7418 7.61202 74.8625C8.00434 74.9832 8.41661 75.0255 8.82527 74.9869C9.23393 74.9483 9.63098 74.8296 9.99376 74.6375C10.3565 74.4454 10.6779 74.1838 10.9396 73.8675C11.2013 73.5513 11.3981 73.1866 11.5188 72.7942C11.6395 72.4019 11.6818 71.9896 11.6431 71.581C11.6045 71.1723 11.4858 70.7753 11.2938 70.4125C7.97814 64.1195 6.24689 57.113 6.25001 50C6.25001 42.625 8.07501 35.675 11.2938 29.5875ZM94.2313 26.6625C93.8434 25.9298 93.1803 25.3813 92.388 25.1375C91.5956 24.8937 90.7389 24.9746 90.0063 25.3625C89.2736 25.7504 88.725 26.4134 88.4812 27.2058C88.2374 27.9981 88.3184 28.8548 88.7063 29.5875C91.925 35.675 93.75 42.6187 93.75 50C93.75 57.375 91.925 64.325 88.7063 70.4125C88.3184 71.1452 88.2374 72.0019 88.4812 72.7942C88.725 73.5866 89.2736 74.2496 90.0063 74.6375C90.7389 75.0254 91.5956 75.1063 92.388 74.8625C93.1803 74.6187 93.8434 74.0702 94.2313 73.3375C98.0235 66.1432 100.004 58.1325 100 50C100.004 41.8675 98.0235 33.8568 94.2313 26.6625ZM20.875 38.6375C21.0494 38.2512 21.1434 37.8335 21.1513 37.4098C21.1592 36.9861 21.0809 36.5652 20.921 36.1727C20.7611 35.7802 20.5231 35.4243 20.2214 35.1267C19.9196 34.8291 19.5605 34.5959 19.1659 34.4415C18.7712 34.287 18.3493 34.2144 17.9257 34.2281C17.5021 34.2419 17.0857 34.3416 16.7019 34.5213C16.3181 34.701 15.9748 34.9569 15.693 35.2734C15.4111 35.5899 15.1966 35.9605 15.0625 36.3625C13.3674 40.7093 12.4984 45.3343 12.5 50C12.5 54.8063 13.4063 59.4062 15.0625 63.6375C15.1966 64.0395 15.4111 64.4101 15.693 64.7266C15.9748 65.0431 16.3181 65.299 16.7019 65.4787C17.0857 65.6584 17.5021 65.7581 17.9257 65.7719C18.3493 65.7856 18.7712 65.713 19.1659 65.5585C19.5605 65.4041 19.9196 65.1709 20.2214 64.8733C20.5231 64.5757 20.7611 64.2198 20.921 63.8273C21.0809 63.4348 21.1592 63.0139 21.1513 62.5902C21.1434 62.1665 21.0494 61.7488 20.875 61.3625C19.4662 57.7401 18.7456 53.8867 18.75 50C18.75 45.9875 19.5 42.1563 20.875 38.6375ZM84.9375 36.3625C84.6078 35.6323 84.0102 35.0566 83.2682 34.7544C82.5262 34.4521 81.6965 34.4464 80.9504 34.7385C80.2043 35.0305 79.5989 35.5979 79.2592 36.3235C78.9195 37.0491 78.8714 37.8775 79.125 38.6375C80.5 42.1563 81.25 45.9875 81.25 50C81.25 54.0125 80.5 57.8438 79.125 61.3625C78.8714 62.1225 78.9195 62.9509 79.2592 63.6765C79.5989 64.4021 80.2043 64.9695 80.9504 65.2615C81.6965 65.5536 82.5262 65.5479 83.2682 65.2456C84.0102 64.9434 84.6078 64.3677 84.9375 63.6375C86.6 59.4062 87.5 54.8063 87.5 50C87.5 45.1937 86.5938 40.5937 84.9375 36.3625Z" fill="#2D376B"/>
</g>
<defs>
<clipPath id="clip0_54_806">
<rect width="100" height="100" fill="white"/>
</clipPath>
</defs>
</svg>
