<svg id="Layer_3" data-name="Layer 3" xmlns="http://www.w3.org/2000/svg" viewBox="0 0 1079.71 1321.85"><defs><style>.cls-1{fill:#eaeef0;}</style></defs><path class="cls-1" d="M1079.14,27.07C1027,28.12,976.57,39.54,925.05,46.29c-23.2,3-48.93.6-71.52,5.94C829.33,58,809.3,76.47,791.9,93.17c-34.55,33.14-71.54,91.52-121.57,102C619.55,205.79,559.66,162,518.09,138.82c-28.41-15.83-56.81-32.41-87-44.68-19-7.72-43.61-17.6-64.42-11.65-42.56,12.18-51.34,74.16-69.43,107.85-29.19,54.35-74.91,37.76-114,1.95-33.22-30.4-61.15-66.16-92-98.84C65.61,66.35,38.44,37.39.29,31.15V33.7c38.16,6.35,65.33,35.21,90.95,62.35,30.81,32.63,58.69,68.33,91.86,98.69,19,17.39,43.87,39.2,71.63,34.82,20.52-3.24,33.14-19.46,42.44-36.74,18.14-33.65,27-95.52,69.52-107.75,20.78-6,45.4,4,64.38,11.7,30.18,12.27,58.59,28.79,87,44.59,41.55,23.09,101.55,66.9,152.26,56.33,50-10.42,87-68.87,121.54-102,17.4-16.7,37.43-35.23,61.63-40.94,22.59-5.32,48.3-3,71.5-6,51.51-6.69,102-17.79,154.13-19.09Z" transform="translate(-0.29 -27.07)"/><path class="cls-1" d="M1079.16,58.61c-52,3.1-103.57,9.81-155.37,14.88-23.18,2.27-48.92.89-71.54,6.14-24.23,5.63-44.17,24.25-61.44,41.06C756.7,153.88,720,213.08,670,223.17s-111-33-152.62-55c-28.61-15.15-57.21-30.92-87.35-42.88-18.89-7.5-43.53-17.86-64.11-11.77-41.82,12.38-52.47,72.24-71.45,105.35-9.58,16.71-22.59,33.08-42.71,36.41-27.42,4.53-52.84-17.66-71.61-34.78-32.34-29.51-59.42-64.31-89.42-96.08C65.07,97.22,38.23,69.67.29,62.59v3.49c37.87,7.12,64.65,34.49,90.29,61.65,29.87,31.63,56.83,66.28,89,95.66,18.74,17.09,44.17,39.23,71.54,34.7,20.08-3.32,33.15-19.66,42.79-36.3,19.13-33,30-92.57,71.8-104.93,20.56-6.09,45.2,4.28,64.09,11.73,30.15,11.9,58.77,27.56,87.42,42.6C558.88,193.05,620.05,236,669.94,225.9s86.61-69.35,120.65-102.56c17.25-16.82,37.17-35.46,61.4-41.08,22.62-5.25,48.39-3.91,71.57-6.05,51.88-4.78,103.6-10.88,155.61-14.09C1079.17,60.71,1079.17,60,1079.16,58.61Z" transform="translate(-0.29 -27.07)"/><path class="cls-1" d="M1079.22,92.38c-52.67,3.47-105.42,3.7-158.16,5.4-23.2.75-49.4-.79-72,4.5-24.16,5.63-43.87,24.46-60.86,41.41-33.46,33.39-69.41,93.37-119.22,103.44-49.28,10-111.3-30.83-153.39-51.22-28.92-14-57.81-28.56-88-39.69-19.1-7-43.63-17-64.18-11.12C321.75,157,308.8,213.33,287.91,245.5c-10.42,16-24,31.73-43.91,34.93-26.89,4.32-51.88-16.7-70.44-33.53C120.4,198.72,75.52,110.39.29,96.08v4.46c74.87,14.2,119.28,101.77,172.2,149.68C191,267,215.89,287.77,242.7,283.5c19.89-3.16,33.57-18.71,44.12-34.66,21.17-32,34.5-87.8,76.09-99.6,20.56-5.84,45.07,4,64.22,11,30.2,11,59.13,25.35,88.09,39.19C557.4,219.56,619.54,260,668.74,250c49.78-10.1,85.61-70.18,119-103.6,16.95-17,36.62-35.83,60.76-41.48,22.66-5.3,48.94-3.66,72.14-4.17,52.9-1.16,105.79-.44,158.62-3.85C1079.23,95.08,1079.23,94.18,1079.22,92.38Z" transform="translate(-0.29 -27.07)"/><path class="cls-1" d="M1079.31,127.86c-54.33,2.52-108-5-162.12-8-23.21-1.27-50.11-4-72.91,1.43-24,5.72-43.38,24.82-60,41.95C751.64,196.94,716.76,257.69,667.24,268c-24,5-50.08-4.64-72.49-12.42-27.86-9.65-54.9-21.55-82-33.14-29.28-12.53-58.55-25.52-88.85-35.42-19.55-6.39-43.87-15.3-64.56-9.89-41.81,10.94-57.32,62.8-81,93.56-11.71,15.23-25.91,29.64-45.83,32.54-26.19,3.82-50-14.81-68.34-31.28C113.37,226.35,72.32,144,.29,131.13v5.45c71.47,12.61,111.89,94,162.31,139.1,39.51,35.37,79.52,42.67,114.14-1.23,24.06-30.52,40.09-81.65,81.91-92.4,20.73-5.32,45,3.39,64.64,9.66,30.33,9.69,59.65,22.42,89,34.7,27.14,11.36,54.24,23,82.12,32.47C616.85,266.49,643,276,666.94,271c49.47-10.38,84.17-71.25,116.69-105,16.54-17.16,35.83-36.31,59.82-42.06,22.84-5.47,49.86-2.46,73.07-.85,54.39,3.76,108.14,12.59,162.81,10.31C1079.32,131.17,1079.32,130.06,1079.31,127.86Z" transform="translate(-0.29 -27.07)"/><path class="cls-1" d="M1079.42,164.51c-56.85.55-111.1-15.59-166.88-24.12-23.18-3.55-50.88-8.35-74-2.64-23.83,5.88-42.75,25.31-58.89,42.63-31.74,34.09-65.31,95.6-114.49,106.37-23.72,5.2-50.19-3.49-72.85-10.13-28-8.23-55.46-18.49-82.91-28.48-29.69-10.8-59.37-22-89.85-30.41-20.14-5.56-44.19-13-65.15-8.25-42,9.57-61,56.47-87.53,85.43-35.71,39-75.16,35.37-113.86,1.16C105.09,253.74,68.37,178,.29,167.27v6.41c67.33,10.26,103.26,84.84,150.58,126.55,38.51,33.93,77.92,36.8,113.8-1.15,27.05-28.6,46.74-74.6,88.75-83.91,21-4.66,45,2.54,65.28,7.94,30.51,8.13,60.27,19,90,29.48,27.52,9.69,55,19.65,83.09,27.61,22.69,6.43,49.23,14.92,72.91,9.69,49.11-10.87,82.44-72.51,114-106.67,16-17.35,34.89-36.85,58.68-42.76,23.22-5.76,51.07-.54,74.24,3.42,56.07,9.57,110.41,27.26,167.77,27.14C1079.43,168.41,1079.43,167.11,1079.42,164.51Z" transform="translate(-0.29 -27.07)"/><path class="cls-1" d="M1079.54,201.82c-59.95-2.13-114.66-27.18-172.08-41.75-23.06-5.85-51.62-13.32-75.29-7.25s-42.06,25.87-57.68,43.38c-30.78,34.5-62.91,96.78-111.7,108.1-23.5,5.45-50.34-2.1-73.25-7.5-28.27-6.67-56.08-15.17-83.92-23.43-30.11-8.93-60.23-18.21-90.93-25-20.77-4.59-44.55-10.46-65.86-6.39-42.28,8.06-65,49.85-94.67,76.58C149.42,413,93.75,215.94.29,204v7.31c94.18,11.42,145,204.09,251.3,111.91,30.26-26.24,53.76-67,96.12-74.79,49.45-9.07,110.59,16.71,157.15,29.91,27.92,7.91,55.81,16,84.13,22.4,23,5.16,49.86,12.48,73.33,7,48.71-11.44,80.54-73.87,111.12-108.45,15.52-17.55,33.87-37.44,57.44-43.53,23.8-6.15,52.53,1.89,75.55,8.18,57.74,15.78,112.53,42.61,173.13,45.33C1079.55,206.28,1079.55,204.79,1079.54,201.82Z" transform="translate(-0.29 -27.07)"/><path class="cls-1" d="M1079.66,239.27c-63.28-5.16-118.44-39.08-177.37-59.7-22.83-8-52.26-18.45-76.58-12-23.4,6.24-41.35,26.44-56.46,44.14-29.79,34.91-60.45,98-108.84,109.86-23.34,5.74-50.5-.66-73.66-4.8-28.51-5.1-56.72-11.8-84.94-18.3-48.76-11.23-107.87-31.83-158.62-24-42.7,6.61-69.2,43.44-101.94,67.58-36.47,26.89-77.05,31.54-113.08,1C86.75,308.05,59.69,246.51.29,240.88V249c58.48,5.12,84.42,65,125.18,99.35,35.69,30.06,76.6,24.64,113-1C271.86,323.8,299.17,288,342,281.71c51.08-7.52,109.71,11.72,159,22.38,28.3,6.11,56.6,12.42,85.17,17.18,23.2,3.87,50.44,10,73.74,4.22,48.31-12,78.66-75.24,108.23-110.24,15-17.74,32.84-38,56.19-44.3,24.48-6.58,54.09,4.55,76.86,13,59.23,21.9,114.49,57.74,178.52,63.57C1079.68,244.22,1079.67,242.57,1079.66,239.27Z" transform="translate(-0.29 -27.07)"/><path class="cls-1" d="M1079.78,276.32c-66.57-8.05-122.2-50.49-182.4-76.73-22.55-9.83-52.77-23.26-77.79-16.35-23.2,6.41-40.68,27-55.29,44.85-28.84,35.29-58.11,99.13-106.14,111.54-23.22,6-50.67.63-74-2.31-28.76-3.62-57.34-8.59-85.92-13.39-51-8.58-108.21-23.4-160.33-17-43.16,5.34-73.28,37.6-108.86,59-35.88,21.6-78.2,29.35-112.71.93-38.55-31.74-60.62-86-116-89.54v8.79C55,289.31,75.43,342,113.59,372.82c34.34,27.76,76.8,19.64,112.65-.91,36.2-20.76,67.16-52,110.43-57.06,52.4-6.14,109.25,7.43,160.71,15.35,28.67,4.42,57.33,9,86.15,12.28,23.42,2.66,50.92,7.81,74.13,1.75,48-12.51,76.89-76.55,105.51-111.92,14.5-17.91,31.87-38.56,55-45,25.2-7,55.58,7.1,78.07,17.32,60.46,27.5,116.2,71.94,183.53,80.61C1079.79,281.68,1079.79,279.9,1079.78,276.32Z" transform="translate(-0.29 -27.07)"/><path class="cls-1" d="M1079.88,312.46c-69.55-10.24-125.66-60.62-186.8-91.66-22.31-11.32-53.08-27.27-78.8-20-23.06,6.54-40.12,27.43-54.3,45.46-28,35.59-56,100.24-103.74,113-23.16,6.2-50.83,1.6-74.37-.29-29-2.34-57.89-5.75-86.79-9-52.57-6-108.69-16.13-161.77-10.81-43.61,4.37-77,32.64-115,51.45-35.49,17.61-78.78,26.87-112.46.82C69,362.93,52.75,315.23.29,313v9.3c51.68,2,66.84,47.93,103.18,75.82,33.39,25.62,77.14,15.91,112.43-.77,38.45-18.18,72.66-45.5,116.38-49.69,53.26-5.09,109.22,4.08,162.08,9.4,29,2.91,57.95,5.94,87,8,23.57,1.66,51.28,6.11,74.43-.13,47.67-12.84,75.42-77.71,103.19-113.36,14.07-18.07,31-39,54.07-45.6,25.9-7.39,56.76,9.09,79,20.75,61.33,32.13,117.57,84.5,187.82,95.13C1079.89,318.12,1079.89,316.24,1079.88,312.46Z" transform="translate(-0.29 -27.07)"/><path class="cls-1" d="M1080,347.16c-72-11.09-128.58-68.66-190.22-103.27-22.19-12.46-53.11-30-79.5-22.4-23,6.6-39.72,27.76-53.55,45.93C729.43,303.2,702.36,368.68,654.82,381.6c-23.13,6.28-51,2.06-74.6,1-29.19-1.35-58.35-3.46-87.5-5.47C439.31,373.39,383.54,366.34,330,371c-43.95,3.83-80.13,28.86-119.78,45.48-34.85,14.61-79.6,25.3-112.38.63C62.62,390.66,50.17,349.17.29,347.38V357c49.32,1.88,60.89,41.78,95.71,67.83,32.65,24.41,77.65,13.42,112.4-.57,40-16.1,76.86-40.36,120.87-44.13,53.65-4.59,109.41,1.89,163,5,29.21,1.71,58.43,3.51,87.67,4.64,23.66.92,51.52,5.14,74.64-1.14C702,375.76,728.9,310,756,274.22c13.75-18.2,30.44-39.42,53.4-46,26.58-7.65,57.43,10.08,79.63,22.81,61.68,35.37,118.47,94.85,191,105.84C1080,353,1080,351.07,1080,347.16Z" transform="translate(-0.29 -27.07)"/><path class="cls-1" d="M1080,379.89c-73.5-9.9-130.79-73.79-192.31-110.35-22.33-13.28-52.75-30.92-79.78-23.19-23,6.57-39.54,27.9-53.15,46.17-26.7,35.86-53.17,102.18-100.66,114.93-23.1,6.2-51,1.81-74.7,1.18-29.34-.77-58.66-1.94-88-3.06-53.62-2-109.54-7.88-163.16-3.23-43.94,3.81-82.35,26.39-122.86,41.67-34.72,13.09-80,24.42-112.53.36C58.55,419,48.64,382.46.29,379.92v9.7c48.11,3,57.58,38.36,91.8,63.64,32.68,24.13,77.71,12.6,112.63-.26,40.65-15,79.5-37.07,123.39-41,53.51-4.8,109.58,1.12,163.14,2.82,29.36.93,58.72,1.89,88.08,2.58,23.68.56,51.61,5.13,74.71-1,47.5-12.61,73.87-79.2,100.45-115,13.57-18.31,30.11-39.65,53.11-46.19,27.22-7.74,57.33,9.56,79.76,23C948.69,315,1006.25,380.62,1080,389.62,1080,385.78,1080,383.83,1080,379.89Z" transform="translate(-0.29 -27.07)"/><path class="cls-1" d="M1080,410.48c-73.69-9.2-130.27-74.11-191.51-110.89-22.52-13.53-53-31.07-80.17-22.51-22.74,7.17-39.24,27.59-53.05,45.84-26.86,35.49-53,99.25-99.9,112.5-23,6.5-51,1.09-74.7.72-29.44-.47-58.88-.72-88.33-1-53.33-.5-110.23-7.13-163.29-1.54-43.2,4.56-82.49,24.84-123.12,38.58-36.32,12.27-78.17,23.91-112.26,0s-47.44-57-93.38-61.74v10.13c44.75,5.3,61.07,37,95.67,59.74,35,23,75.12,12,112.23.22,40.48-12.81,80-31.51,122.59-36.17,22.26-2.43,45.31.15,67.69.37,31.94.31,63.89,0,95.83-.27,29.51-.24,59-.53,88.53-.34,23.76.14,51.77,5.77,74.73-.89,46.25-13.4,72.3-74.63,99.37-109.59,14-18,30.44-37.66,52.9-45,27.09-8.88,57.67,8.72,80.2,22.22,61,36.57,116.68,100.18,190,109.73Z" transform="translate(-0.29 -27.07)"/><path class="cls-1" d="M1080,440.74c-71.9-9.76-125.41-70.57-185.43-106.31-22.5-13.4-52.76-30.47-79.64-21.5-21.75,7.26-38.19,25-52.38,42.16-27.43,33.21-53.18,88.39-97.87,101.38-23.06,6.7-50.9,1.16-74.87,1.72-29.7.7-59.38,2.34-89,3.87-32.1,1.65-64.23,3.46-96.38,4-22.5.37-45.46-2.16-67.79.22-41.37,4.41-81,19.08-121.09,29.4-38.66,10-75.94,19.14-112.77-1.1C66.66,474.74,43.35,446.5.29,440.74v10.82c42.63,5.72,69.95,31.71,107.18,49.69,37.78,18.24,74,10.31,113.34,1.76,39.81-8.64,79.41-20.71,120.07-24.78,22.41-2.24,45.3,0,67.88-.77,32.3-1.16,64.53-3.92,96.74-6.46,29.78-2.36,59.55-4.86,89.39-6.19,24.12-1.07,51.79,4.16,75-2.43,43.67-12.43,69.24-63.84,96.85-95.76,14.29-16.51,30.69-33,52-40,26.75-8.76,56.57,7.72,79,21C957,382.74,1009.14,441.93,1080,451.56Z" transform="translate(-0.29 -27.07)"/><path class="cls-1" d="M1080,471c-68.58-9.06-118.06-65.13-175.44-98.76-22.38-13.13-51-28.09-77.51-20.1-20.35,6.14-36.67,20.26-51.13,35.25-27.92,29-53.12,72.91-94.68,83.84-23.57,6.19-50.78,1.88-75.21,4.07-30.14,2.7-60.13,6.95-90.11,11-32.42,4.39-64.87,9-97.5,11.6-22.73,1.78-45.44.33-68.07,2.14-39.44,3.15-78.69,9.88-117.91,15-40.24,5.24-75.71,10.86-114.81-3.2C77.73,497.46,43.21,476.28.29,471V482.5c43.8,4.85,82.35,22.74,124.21,34.82,39.54,11.41,75.54,7,115.92,4.2,94.89-6.69,188.76-10.47,282.67-26.56,30.11-5.16,60.23-10.55,90.57-14.19,24.66-3,51.48.59,75.38-5.25,40.14-9.8,65.11-49,93.23-75.83,14.55-13.89,30.81-26.45,50.53-31.95,26.31-7.33,54.06,6.5,76.38,19.48C965.26,419.84,1013,473.94,1080,482.5Z" transform="translate(-0.29 -27.07)"/><path class="cls-1" d="M1080,501.24c-64.2-7.54-108.82-58.27-162.57-89.05-44.22-25.32-83.59-24.56-123.67,7.57-28.41,22.79-53.09,53.87-90.64,61.58-24.59,5.05-50.64,3.05-75.68,7.41-30.72,5.34-61.06,12.72-91.41,19.82-56,13.1-109.86,24.26-167.35,26-38.13,1.17-75.81-1.77-113.87-3.27-40.05-1.58-78.26,1.18-118-6C91.17,517.09,46.66,505.12.29,501.24v12.2C49,516.51,97,524.34,145.4,530c39.87,4.68,79.76,2.54,119.52,7.26,37.5,4.46,74.12,11.63,112.07,11.41,58-.33,112.57-16.18,168.15-31.53,30.5-8.43,61-17.17,92-23.71,25.27-5.34,50.78-4.56,75.9-8.95,35.68-6.24,60.29-32,88.84-51.66,39.87-27.5,79.35-27.85,121.33-4.1,52.12,29.49,94.58,77.91,156.81,84.7Z" transform="translate(-0.29 -27.07)"/><path class="cls-1" d="M1080,531.5c-59.18-5.6-98.3-50.49-147.87-78-38.82-21.51-78.32-21.25-117.68-1.33-28.51,14.43-53.37,32.27-86.05,36.31-25.93,3.21-50.7,4.52-76.23,11.37-31.4,8.42-62.12,19.24-92.87,29.7C505.13,548,448.17,571.72,389.92,569.67c-38.11-1.34-72.74-15-109.29-24-39.81-9.82-81.19-7.95-121.91-9.23Q79.51,534,.29,531.5v12.89c56.1.4,112.13-2.31,168.21-3.59,42-1,83.45-3.19,123.7,10.68,35.74,12.32,68.75,30.65,107.24,33.21,58.06,3.87,117.61-26,170.29-46.34,56.38-21.79,109.63-42.2,170-47.25,30.45-2.55,55.8-14.9,84-25.06,38.84-14,78.12-14.72,115,5.34,47.72,26,84.36,68.27,141.31,73Z" transform="translate(-0.29 -27.07)"/><path class="cls-1" d="M1080,561.75c-53.91-3.59-87.18-42.3-132.39-66.27C913,477.14,874.09,479,836.37,484.67c-27.27,4.08-53.53,9-81.23,9.76C694.3,496,638.53,525.62,583.92,550.08c-50.23,22.49-114.1,61.21-171.51,54.88-39.28-4.33-70-29.07-104.47-45.75-41-19.85-81.86-16.5-126.14-12.66-60.51,5.26-120.72,13.8-181.51,15.2v13.58c64.53-2.9,127.92-15.89,191.84-24.22,46.28-6,86.59-10.59,128,14.19,33.29,19.9,62.3,49.72,102.32,55.5,24,3.47,47.56-5.32,69.62-13.8,35.26-13.56,69-31,102.85-47.71,52.6-26,111.63-63.35,172.17-62.17,26.35.51,52.71,1.51,79.06,2.13,36.56.85,75-2,108.37,15,43.5,22.18,73.74,58.29,125.46,61Z" transform="translate(-0.29 -27.07)"/><path class="cls-1" d="M1080,592c-48.9-1.81-76-34.46-117.15-54.76-32.42-16-70.27-11.55-105-20.11-25.44-6.27-50.12-14.41-76.47-16.38-59.66-4.46-123.53,42.59-173.31,70-34.05,18.73-68,38.22-103.73,53.68-21.64,9.36-45.83,20.22-69.88,15.77-41-7.59-68-43.66-99.74-67.19-41.63-30.87-81.5-24.62-130.25-16-68,12-135.15,30.26-204.22,35v14.27C73.13,600,143.36,577.39,214.65,562.4c25.12-5.28,54.48-13.83,80.29-10,20,2.94,36.84,14.63,51.75,27.53,30.39,26.3,55.78,67.69,97.62,76.78,24.07,5.23,48.83-7.32,70.08-17.35,36.09-17,70.23-38.21,104.46-58.6,31.78-18.92,63.44-38.35,96.59-54.83,24.26-12.07,50-24.85,77.65-21.56s49.63,17.11,74.35,28.08c33.09,14.69,70,8.82,102.2,24.21,39.3,18.75,63.77,48.5,110.36,49.63Z" transform="translate(-0.29 -27.07)"/><path class="cls-1" d="M1080,622.26c-44.14-.54-65.91-27.14-103.22-44.25-32.73-15-67.93-7.49-99.39-28.46-23.65-15.77-42.59-35.55-72.1-40.39-27.63-4.54-54.22,10.65-77.92,23.42-33.5,18.06-65.33,39.14-97.31,59.7-34.43,22.13-68.74,45.13-105.23,63.8-20.84,10.66-46.2,25-70.3,19-42.49-10.61-66.86-57.74-95.38-86.88-13.92-14.23-30.75-27.84-50.93-31.26-26.38-4.46-57.5,6-82.93,12.19-74.72,18.1-148.18,45.33-225,53.16v15c80.24-9,156.47-40.34,234.08-61.09,25.67-6.87,58.25-19,85.09-14,20.54,3.82,37,19.12,50.24,34.35,27.21,31.28,50.17,83.67,93.47,95.55,24.13,6.63,50-9.12,70.48-20.29,36.84-20.07,71.34-44.61,105.89-68.29,32.11-22,64.13-44.51,97.93-63.9,23.21-13.32,50.52-30.47,78.14-25,31.18,6.19,48,31.3,70.19,50.95C897.58,576,911,584,926.51,587.61c19.16,4.46,37.81,1.78,56.37,10,35.59,15.69,55.1,39.51,97.12,39.65Z" transform="translate(-0.29 -27.07)"/><path class="cls-1" d="M1080,652.51c-20,0-37-2.82-54.37-12.79-12.63-7.26-23.69-17.05-37.25-22.7-18.13-7.56-36.65-4.35-55.11-9.21-16-4.2-29-13.87-40-25.92-20.68-22.74-35.7-53.19-68.44-60.57-27.63-6.23-55.56,12.55-78.34,26.33-34.09,20.61-66.24,44.45-98.5,67.77-34.69,25.08-69.32,51.08-106.5,72.43-20.2,11.59-46.44,28.52-70.64,21.41-44.09-13-65.71-70.35-91.72-103.45-12.65-16.1-28.72-32.9-49.65-37-27.27-5.41-61,8-86.9,15.5-80.16,23.13-159,58.4-242.29,68.25v15.65c86-10.21,167.07-49.26,249.36-74.42,26-8,60.6-22.38,88.27-16.7,21.34,4.38,37,22.37,49.17,39.23,25,34.6,45.32,96.6,90.19,110.33,24.29,7.43,50.81-10.32,70.77-22.26,37.51-22.44,72.24-49.77,107-76.09,32.39-24.49,64.65-49.53,99-71.22,22.43-14.15,50.8-34.09,78.49-27.39,34.21,8.27,47.56,43.86,66.92,68.94,10.27,13.32,22.86,24.46,39.42,29.14,17.93,5.08,36.4,1.42,54.18,8.53,12.5,5,22.61,13.9,34.23,20.42,16.74,9.4,33.54,11.53,52.65,11.49Z" transform="translate(-0.29 -27.07)"/><path class="cls-1" d="M1080,682.77c-18.45,0-35.23-1.68-51.52-10.64-10.85-6-20.23-14.1-31.88-18.65-17.57-6.87-36.05-2.86-53.7-8-17.07-5-29.24-17.13-39-31.37-18.31-26.66-30.35-66.5-65.78-75.21-27.8-6.83-56.36,13.63-78.59,28.07-34.61,22.48-66.94,48.48-99.41,73.88-34.88,27.29-69.67,55.67-107.46,78.9-19.82,12.19-46.44,30.31-70.85,22.75-45.57-14.1-64.89-79.84-89.05-115.49-11.83-17.45-27.12-36.19-48.85-40.66-28-5.76-62.83,9.1-89.06,17.44-83.73,26.62-166.56,69-254.54,79v16.34c89.43-8.89,173.89-54.75,258.52-82.43,26.42-8.64,60.87-23.39,89.26-17.77,22.18,4.4,37.07,23.44,48.67,41.46,23.47,36.45,41.81,105.57,88.15,119.62,24.58,7.46,51.11-10.52,70.89-22.89,38.07-23.83,72.9-53.17,107.81-81.28,32.52-26.19,64.9-53,99.74-76.14,22.16-14.7,50.65-35,78.66-28.4,36.64,8.64,47.44,52.36,64.87,80.2,9.39,15,21.13,27.85,38.75,32.85s36.11.84,53.66,7.5c10.92,4.14,19.67,11.63,29.83,17.11,16,8.62,32.93,9.91,50.9,10.17Z" transform="translate(-0.29 -27.07)"/><path class="cls-1" d="M1080,713c-17.87-.53-35-1.78-51-10.21-9.8-5.15-18.16-12.28-28.65-16.21-17.72-6.64-36.31-2.5-54.09-7.21-18-4.79-29.48-17.7-38.69-33.17-16.92-28.41-26.86-74.53-64.44-82.59-28.23-6-56.41,13.44-78.66,28.3-35,23.4-67.39,50.76-99.93,77.41-34.89,28.58-69.72,58.51-108,82.56-19.85,12.48-46.13,29.8-70.88,22.65-47-13.56-64.64-84.81-87.7-121.61-11.56-18.43-26.12-37.23-48.69-41.4-28.64-5.29-62.24,8.78-88.82,17.58C175.82,657.17,90.2,705.88.29,713v17c89.29-9.21,173.6-54.41,258.21-81.95,26.46-8.61,60.83-23.27,89.27-17.91,22.33,4.21,37.13,23.26,48.69,41.4,23.31,36.6,41.34,106.5,88,120.35,24.77,7.36,51.4-10.3,71.3-22.8,37.92-23.81,72.41-53.41,107-81.71,32.2-26.37,64.26-53.44,98.92-76.57,22.1-14.75,50.66-34.87,78.63-28.14,36.23,8.71,48.72,52.54,66.79,80,9.69,14.7,21.55,27.72,39.06,32.75s35.93,1,53.39,7.62c10.8,4.07,19.49,11.41,29.57,16.79,16,8.55,33,9.84,51,10.21Z" transform="translate(-0.29 -27.07)"/><path class="cls-1" d="M1080,743.27c-18.17-.28-35.13-1.75-51.3-10.42-10.43-5.6-19.47-13.22-30.65-17.48-17.4-6.62-35.8-2.84-53.23-7.92-17.2-5-29.66-17.7-40-31.66-19.56-26.35-34.59-67.55-70-76.34-27.83-6.9-56.33,13.18-78.4,27.88-34.25,22.82-65.92,49.54-97.73,75.57-34.15,28-68.24,57.17-105.72,80.66-19.92,12.49-46.6,30.15-71.34,22.73-46.3-13.87-64.7-82.33-88.3-118.61-11.63-17.89-26.62-36.85-48.75-41-28.19-5.35-62.76,9.33-89.1,17.68-83.93,26.61-167,68.88-255.15,79V761c85.86-10.37,167-48.45,249.25-73.2,26.13-7.86,60.44-22,88.2-16.77,21.89,4.12,37.11,22.62,48.94,40.14,24.08,35.68,43.05,101.76,88.94,115.4,24.64,7.33,51.09-10,71-22.4,36.71-22.9,70.08-51.46,103.5-78.8,31.11-25.45,62.1-51.56,95.64-73.81,22.16-14.69,50.07-34,77.84-27.37,34.74,8.36,53.77,45.21,76,69.59,11.63,12.76,25.16,24.49,42.17,29.25,17.64,4.92,36,1.55,53.5,8.34,11.82,4.58,21.46,12.67,32.51,18.64,16.53,8.93,33.53,10.75,52.19,11Z" transform="translate(-0.29 -27.07)"/><path class="cls-1" d="M1080,773.53c-19.11-.26-36.22-2.4-53.1-11.56-11.55-6.28-21.69-14.82-34.06-19.63-17.71-6.89-36.06-4-54-8.63-17.06-4.44-31.46-15.23-44.21-27-24.51-22.55-46.71-55.9-81.27-63.66-27.78-6.25-55,12.19-77.29,26.9-32.93,21.76-63.33,47.36-93.85,72.31-32.79,26.81-65.55,54.82-101.61,77.21-19.91,12.36-46,29.2-70.57,22-45.58-13.33-65-77.46-89.51-112.58-12-17.24-27.4-35.23-49.11-39.25-27.39-5.07-61.21,8.35-87.16,15.76-80.73,23-160.16,58-244,68v18.41c80.27-9,156.91-39,234.79-59.09,25.65-6.61,58.33-18.57,85.11-13.8,21.47,3.83,37.08,20.81,49.45,37.59,25.18,34.13,45.36,95.08,90.47,107.73,24.33,6.82,49.77-9.07,69.61-21.29,35-21.53,66.63-48.64,98.42-74.51,29.57-24.06,58.92-48.86,90.85-69.79,22.49-14.75,48.45-31.36,76.27-26.09,34.86,6.61,62,34.28,90.32,53.47,14.6,9.91,30.44,19,47.85,22.84,18.58,4.1,37.05,1.83,55.13,9,13.26,5.3,24.26,14.47,36.68,21.28,17.47,9.57,34.88,12.27,54.76,12.61Z" transform="translate(-0.29 -27.07)"/><path class="cls-1" d="M1080,803.78c-20.43-.41-38.12-3.53-56-13.4-13.05-7.19-24.65-16.73-38.53-22.44-18.34-7.55-37-5.71-56.06-9.32-17.85-3.38-34.67-11.24-50.56-19.79-30.89-16.64-61.34-40.39-96.85-46.12-27.82-4.49-52.87,10.74-75.5,25.5-31.21,20.33-59.86,44.53-88.72,68-31,25.22-61.91,51.68-96.13,72.59C501.84,870.88,477,886,452.79,879.5c-44.8-12.11-65.5-70.84-91.17-104.24-12.64-16.45-28.39-32.65-49.7-36.33-26.34-4.55-58.09,6.27-83.51,12.27C152.65,769.09,78,795.75.29,803.78v19.1c73.28-6.13,144.39-27.08,216.36-41.1,25-4.87,55-13.63,80.57-9.49,21.06,3.41,37,18.21,50.14,34.08,26.56,32.06,48.11,87,92.39,98.11,23.84,6,47.74-7.8,67.41-19.66C540,865,569.59,839.69,599.3,815.58c41.73-33.87,100.19-95.86,159.12-89.31,37.46,4.17,73,21.2,108.32,33.21,18,6.13,36.48,11.8,55.39,14.36,19.92,2.7,38.94,1.75,57.84,9.74,36.32,15.36,57.91,38.11,100,39.3Z" transform="translate(-0.29 -27.07)"/><path class="cls-1" d="M1080,834c-43.26-1.45-66.12-25.43-103.44-41.45-19.27-8.28-38.54-7.88-59-10-19.7-2-39.18-6.33-58.42-10.94-38-9.11-76.3-22-115.43-25.2-59-4.76-113.75,52.5-156,86.72-28.88,23.42-57.65,48-89.68,67.17-19.57,11.69-42.85,24.6-66.46,19-44-10.46-66-63.1-93.15-94.3C325,809.53,308.93,795.62,288,792.38c-25.08-3.89-54,3.59-78.68,7.7-69.59,11.61-138.5,29.07-209,34v19.78c65.56-2.6,130.35-13.61,195.49-20.72,48.41-5.3,89.79-12.48,126.09,25.62C350,888.27,373,936.73,416.42,946c53.28,11.38,113.19-51.41,149.84-81.07,42.84-34.65,91.36-83.55,150.12-81.95,42.91,1.16,85.84,6.68,128.58,10.4,40.37,3.52,87.63-1.57,125.28,15,39.17,17.25,64.41,43.45,109.76,45.43Z" transform="translate(-0.29 -27.07)"/><path class="cls-1" d="M1080,864.29c-46.48-2.3-73-29.68-113.18-47.59-39.22-17.49-87.64-11-129.57-11.79-45.21-.81-90.48-2.38-135.69-2.39-58.39,0-103.94,44.62-147,79.38-36.55,29.53-93.58,88.88-146.42,78.31-43.2-8.65-66.43-54.92-95.31-83.49-36.16-35.77-77.17-29.52-124.43-26C125.73,855.41,63.21,862.9.29,864.29v20.48c57.9.84,115.8.39,173.71.53,44.92.11,85.36-4.61,121.17,26.74,30.28,26.5,54,68.59,96.8,76,51.84,9,103.41-43.65,139.69-72.89,43-34.63,83.58-71.67,140.74-74.31,50.05-2.31,99.83-8.52,149.68-13.36,45.21-4.39,95.17-14.08,138,5.45,42.12,19.2,71.21,48.9,119.91,51.83Z" transform="translate(-0.29 -27.07)"/><path class="cls-1" d="M1080,894.54c-49.76-3.23-80-34-123.09-53.83-44.7-20.57-95.22-9.18-142-2.46C763,845.73,711.06,855.5,658.63,859.06c-56.44,3.83-95,37.43-137.8,71.91-36.12,29.07-85.21,78.59-136.51,70.33-42.46-6.84-66.72-46.94-97.51-72.48-35.48-29.42-76-25.18-119.64-27.08-55.63-2.43-111.23-5.38-166.88-7.2v21.17c51.35,3.65,101.67,13.92,152.55,21.18,41.09,5.87,81.57,2.16,116.46,27.8,31.84,23.4,57.2,59.38,99,65,50,6.78,94.15-36.32,129.84-65,21-16.84,41.89-34.36,65.11-48.13,21.83-12.95,41.9-15.89,66.5-18.73,57.58-6.65,113.85-23.52,170.2-36.46,50-11.49,101.56-26.63,150.29-3.79,45,21.08,77.8,54.16,129.77,58Z" transform="translate(-0.29 -27.07)"/><path class="cls-1" d="M1080,924.8c-52.76-4.13-86.88-38-132.51-59.77-50.19-24-102.59-7-153.64,6.32-58.12,15.17-116.18,35-175.91,42.9-24.2,3.21-44.17,5.5-65.81,18.2-22.59,13.26-42.87,30.25-63.26,46.58-35.47,28.41-77.7,69-127.12,62.75-41.49-5.21-67.34-39.51-99.6-62-34.73-24.2-75.1-20.49-115.19-28.08C98,942.45,50.1,929.11.29,924.8v21.85c47.16,5.56,88.63,26,133.54,39.74,38,11.59,77.8,7.43,112.43,28.65,33.15,20.31,60.18,50.87,101,55.13,47.95,5,86.21-30,121.07-57.82,19-15.16,37.92-31,59.09-43.08s41-13.15,64.29-17C656.29,941.5,718.37,915,780.41,894.91c53.7-17.39,107.09-38,161-11.89,47.38,23,83.86,59,138.63,63.63Z" transform="translate(-0.29 -27.07)"/><path class="cls-1" d="M1080,955.05c-55.48-4.82-92.78-41.61-140.77-65-55.12-26.84-108.87-5-163.43,13.79-63.39,21.81-126.89,50.73-193.23,62.39-23,4-42.79,4.74-63.77,16.62-20.66,11.71-39.1,27.09-57.61,41.84-34.61,27.57-71.6,60.75-119,56.11-40.52-4-68-33.21-101.45-52.73-34.72-20.26-74.24-15.69-111.52-28.82C85.7,983.92,46.84,961,.29,955.05V977.6C46.35,984,78,1012.9,118.5,1032.29c35.53,17,74.46,11.06,109.58,29.15,34.06,17.55,62.76,43.67,102.58,47,45.94,3.9,80.24-25.2,114.15-52.1,17.32-13.74,34.59-28.22,54.07-38.86,20.63-11.26,40.26-11.38,62.59-15.67,70.45-13.51,137.41-48.53,203.85-74.35,31.13-12.09,63-24.78,95.86-31.2,25.78-5,49.88,1.77,73.05,13.17,49.38,24.29,88.66,63,145.77,68.13Z" transform="translate(-0.29 -27.07)"/><path class="cls-1" d="M1080,985.31c-57.57-5.14-97.44-44.49-147.2-69-23.22-11.45-47.44-18.45-73.31-13.34-33.36,6.58-65.59,19.92-97,32.52-67.27,27-135.28,63.92-206.92,77.8-22.16,4.3-41.75,4.28-62.27,15.4-19.12,10.36-36.06,24.53-53,38-33.66,26.67-67.31,54.7-112.79,51-39.6-3.25-68.7-28.45-102.91-45.4-35.24-17.45-74.18-11.06-109.11-29.2C75.7,1022.37,46.54,991.69.29,985.31v23.23c47.73,5.68,70,40.84,108.1,64.57,33.2,20.69,73,13.28,108.39,29.14,34.51,15.47,64.74,38.38,103.68,41.52,44.32,3.58,76.86-22.32,109.82-48.35,16.12-12.72,32.23-26.22,50.48-35.83,20.35-10.72,39.72-10.69,61.63-14.79,74.41-13.93,145.19-56.36,214.13-85.93,32-13.72,65.15-28.75,99.51-35.32,25.92-5,50.33,2.39,73.49,13.89,50.57,25.1,91.89,66.11,150.48,71.1Z" transform="translate(-0.29 -27.07)"/><path class="cls-1" d="M1080,1015.56c-58.77-4.87-100.43-46.32-151.14-71.52-23.08-11.47-47.48-18.86-73.34-14.06-34.54,6.41-67.91,21.86-99.93,35.79-69.16,30.09-140.68,74.07-215.64,87.64-21.89,4-41.22,4-61.54,14.67-18.05,9.48-34,22.78-49.9,35.35-32.77,25.85-65.24,51.46-109.28,47.84-38.77-3.2-69.3-25.58-103.84-40.71-35.37-15.48-75.69-7.9-108.41-29.06C69.15,1057.05,48.7,1020.78.29,1015.56v23.93c49.8,4.13,67.38,42,105.14,67.37,31.91,21.49,73.44,14.25,108.69,29,34.57,14.44,66,35.78,104.24,39.3,43.26,4,76.43-21.9,108.73-47,15.68-12.2,31.36-25,49.05-34.28,20.32-10.61,39.65-11.23,61.63-14.88,75.4-12.52,148.21-58.79,217.22-89.49,31.87-14.17,65.57-30.18,100.2-36.1,25.65-4.38,50,3.14,72.8,14.44,50.82,25.14,93.25,66.8,152,71.71Z" transform="translate(-0.29 -27.07)"/><path class="cls-1" d="M1080,1045.81c-58.6-5.18-101.2-46.29-152-71.28-22.89-11.25-47.24-18.88-72.9-14.4-34.58,6-68.19,21.87-100.07,36-69,30.54-141.39,76.09-216.6,88.88-22,3.73-41.38,4.52-61.7,15.07-17.69,9.18-33.41,21.89-49.13,34-32.28,24.83-65.71,50.79-108.75,46.8-38.23-3.55-69.82-24.73-104.43-39-35.27-14.58-76.66-7.7-108.64-29-37.79-25.2-55.95-62.61-105.45-67v24.62c48.47,4.86,69.32,40.31,107.57,64.24,32.59,20.38,73.51,14.64,109.05,28.47,34.94,13.59,67.46,33.8,105.61,37.33,42.3,3.92,76.58-21.46,109.11-45,15.93-11.53,31.85-23.59,49.53-32.38,20.35-10.12,40.08-11.31,61.95-15.19,73.9-13.1,144.37-55.76,212.67-85,31.7-13.59,64.68-28.55,98.82-34.76,25.62-4.65,50.08,3.1,73.15,13.94,51,23.95,94.33,62.58,152.25,68.36Z" transform="translate(-0.29 -27.07)"/><path class="cls-1" d="M1080,1076.07c-57.74-5.82-101.3-43.81-152.32-67.44-23.11-10.7-47.58-18.41-73.18-13.76-34,6.17-66.79,20.89-98.38,34.32-68,28.89-138,70.82-211.46,83.84-21.85,3.87-41.63,5.12-62,15.1C465,1136.79,449,1148.67,433,1160c-32.65,23.21-67.1,48.27-109.24,44.4-38.16-3.51-70.91-23.42-106-36.81-35.64-13.61-76.47-8.08-109.26-28.19-38.42-23.55-60-58.47-108.24-63.36v25.3c47.5,4.69,72.56,37,112,58.52,33.9,18.52,74.41,13.76,110.68,26.26,35.74,12.32,69.65,30.68,108,33.95,41.57,3.56,76.64-19.47,110.1-41,16.27-10.49,32.55-21.42,50.27-29.37,20.46-9.2,40.47-10.5,62.17-14.22,71-12.14,138.68-50.53,204.83-77.35,30.88-12.51,62.81-26,95.8-31.78,25.39-4.44,49.94,2.84,73.2,12.76,51.23,21.84,95.77,56.67,152.71,62.27Z" transform="translate(-0.29 -27.07)"/><path class="cls-1" d="M1080,1106.32c-56.77-5.49-101.52-39.66-152.79-61.09-23.3-9.74-47.86-16.9-73.2-12.52-32.76,5.66-64.48,18.88-95.18,31.19-65.72,26.33-132.9,64-203.33,75.87-21.68,3.66-41.72,5-62.2,14-17.73,7.8-34.08,18.52-50.42,28.82-33.65,21.21-68.83,43.74-110.29,40.26-38.36-3.21-72.51-21.23-108.41-33.31-36.41-12.25-76.88-7.61-111-25.77-39.68-21.1-65.48-52.81-112.86-57.41v26c46.93,3.91,76.84,32.37,117.91,50.88,35.58,16,76,11.92,113.25,22.77,36.82,10.71,72.31,26.71,111,29.54,41,3,76.7-16.52,111.53-35.68,16.69-9.18,33.4-18.71,51.22-25.57,20.6-7.94,40.81-9,62.32-12.28,67.14-10.15,131.45-43.76,194.56-67.29,56.38-21,106.22-38.09,164.59-16.53,51.5,19,97.4,49.47,153.31,54.16Z" transform="translate(-0.29 -27.07)"/><path class="cls-1" d="M1080,1136.58c-55.77-4.52-101.87-34.33-153.4-52.92-23.44-8.46-48-14.6-73-10.82-31.15,4.71-61.44,16.15-90.88,27-62.63,23-126.44,55.94-193,65.76-21.48,3.17-41.71,4.21-62.33,12-17.84,6.7-34.61,16-51.36,25-35,18.79-70.77,37.77-111.75,34.86-38.79-2.75-74.5-18.4-111.49-28.87-37.46-10.61-77.83-6.55-113.66-22.21-41.31-18.06-71.92-46-118.81-49.72v26.68c46.84,2.79,81.84,26.91,124.78,42,37.41,13.16,77.93,9.45,116.44,18.44,38.08,8.89,75.21,22.2,114.56,24.45,40.69,2.32,76.88-13.11,113.26-29.4,38.91-17.42,72.66-25.88,114.7-31,62.7-7.57,123.21-36,182.7-55.67,54.47-18,103.16-30.64,159.26-13.58,51.74,15.73,99.11,41.37,154,44.71Z" transform="translate(-0.29 -27.07)"/><path class="cls-1" d="M1080,1166.83c-54.79-3.17-102.32-28.23-154.09-43.57-55.8-16.53-104.39-4.43-158.61,13.22-59,19.23-119.11,47-181.27,54.27-41.94,4.9-75.87,13.14-114.84,30.12-36.55,15.93-72.81,30.88-113.47,28.64-39.44-2.18-76.76-15.17-115-23.83-38.67-8.77-79.22-5.11-116.83-17.91-43.18-14.69-78.75-38.29-125.62-40.94v27.37c47.29,1.55,87.15,21,132.1,32.56,39.18,10.09,80.12,6.71,119.92,13.73,39.39,7,78.14,17.42,118.31,19,40.46,1.63,77.3-9.64,115.12-22.69,39.32-13.56,74.66-20.11,115.9-23.54,58-4.82,114.49-27.75,170.12-43.33,52.1-14.6,100.18-23,153.49-10.42,52,12.23,100.75,32.82,154.75,34.65Z" transform="translate(-0.29 -27.07)"/><path class="cls-1" d="M1080,1197.08c-53.92-1.69-102.85-21.81-154.82-33.71-53-12.14-101.08-4.14-152.95,10.12-55.27,15.2-111.39,37.61-168.94,42.18-41.17,3.28-76.66,9.64-116,22.85-37.94,12.73-74.85,23.62-115.29,22.06-40.26-1.56-79.15-11.76-118.67-18.53-39.92-6.84-80.91-3.49-120.24-13.29-45.14-11.25-85.44-30.25-132.79-31.68v28.07c48.22.35,92.36,15,139.35,23.2,40.74,7.1,82.31,4,123.34,9.08,40.69,5,80.95,12.67,122,13.67,40.32,1,78-6.39,117-16,39.63-9.82,76.46-14.43,117.1-16.21,53.36-2.33,105.81-19.64,157.64-31.11,49.6-11,97.43-15.74,147.79-7.28,52.11,8.75,102.22,24.27,155.49,24.69Z" transform="translate(-0.29 -27.07)"/><path class="cls-1" d="M1080,1227.34c-53.23-.33-103.42-15.5-155.54-24-50.16-8.19-98-3.64-147.4,7.07-51.57,11.18-103.74,28.1-156.78,30.27-40.62,1.67-77.55,6.15-117.19,15.71-39,9.41-76.77,16.53-117.08,15.59-41.16-1-81.53-8.41-122.3-13.31-41.12-4.94-82.73-1.86-123.57-8.76-47.14-8-91.55-22.28-139.85-22.56v28.75c49.46-.6,97.09,9.34,146,14.6,42,4.51,84.29,1.66,126.39,4.93,83,6.46,161.35,12.06,244.09-1.23a773.55,773.55,0,0,1,118.26-9.57c49.14-.41,97.79-12.26,146.13-19.83,47.42-7.43,94.85-9.51,142.65-4.43,52.24,5.55,103.4,16.22,156.17,15.53Z" transform="translate(-0.29 -27.07)"/><path class="cls-1" d="M1080,1257.59c-52.75.73-104-9.72-156.2-15.12-47.7-4.94-95.1-3-142.43,4.3-48.17,7.4-96.66,19-145.61,19.33a787.05,787.05,0,0,0-118.31,9.27c-82.74,13-161.3,7.48-244.32,1.19-42.15-3.2-84.49-.37-126.52-4.76-49-5.12-96.8-14.85-146.32-14.21V1287c50.79-1.14,100.95,4.71,151.58,7.42,42.88,2.3,85.82,0,128.74,1.75,83.18,3.38,165.23,6.92,248.32-.38a1145.13,1145.13,0,0,1,119.31-4.24c45.65.73,91.09-6.17,136.44-10.33,99.07-9.11,196.46,8.19,295.32,5.78Z" transform="translate(-0.29 -27.07)"/><path class="cls-1" d="M1080,1287.85c-98.81,2.41-196.24-14.61-295.25-5.67-45.28,4.09-90.64,10.86-136.21,10.11a1162.49,1162.49,0,0,0-119.34,4.13c-83.1,7.16-165.22,3.67-248.41.36-42.94-1.72-85.9.56-128.79-1.68-50.67-2.65-100.89-8.4-151.71-7.25V1318c178.86-3.56,357.93,8.28,536.84,2.36,83.24-2.76,166.37-1.32,249.64-4.3,97.78-3.49,195.48,4,293.23,1.94Z" transform="translate(-0.29 -27.07)"/><path class="cls-1" d="M1080,1318.1c-97.75,2.1-195.45-5.4-293.23-1.92-83.26,3-166.38,1.52-249.61,4.26-178.92,5.9-358-5.9-536.87-2.34v30.82H1080Z" transform="translate(-0.29 -27.07)"/></svg>